<svg xmlns="http://www.w3.org/2000/svg" xmlns:xlink="http://www.w3.org/1999/xlink" width="725" zoomAndPan="magnify" viewBox="0 0 543.75 159.000002" height="212" preserveAspectRatio="xMidYMid meet" version="1.0"><defs><g/><clipPath id="f936621cb5"><path d="M 17.375 23.867188 L 127.683594 23.867188 L 127.683594 134.175781 L 17.375 134.175781 Z M 17.375 23.867188 " clip-rule="nonzero"/></clipPath></defs><g clip-path="url(#f936621cb5)"><path fill="#ffffff" d="M 46.839844 69.011719 L 46.839844 88.984375 C 46.839844 89.828125 46.882812 90.664062 46.964844 91.5 C 47.046875 92.335938 47.171875 93.167969 47.335938 93.992188 C 47.5 94.816406 47.707031 95.628906 47.949219 96.433594 C 48.195312 97.238281 48.476562 98.027344 48.800781 98.804688 C 49.121094 99.578125 49.480469 100.339844 49.878906 101.078125 C 50.273438 101.820312 50.707031 102.539062 51.171875 103.238281 C 51.640625 103.9375 52.140625 104.613281 52.675781 105.261719 C 53.207031 105.910156 53.769531 106.53125 54.363281 107.125 C 54.960938 107.722656 55.582031 108.285156 56.230469 108.816406 C 56.878906 109.351562 57.554688 109.851562 58.253906 110.316406 C 58.953125 110.785156 59.671875 111.21875 60.414062 111.613281 C 61.152344 112.011719 61.910156 112.371094 62.6875 112.691406 C 63.464844 113.011719 64.253906 113.296875 65.058594 113.542969 C 65.863281 113.785156 66.675781 113.992188 67.5 114.15625 C 68.324219 114.320312 69.15625 114.445312 69.992188 114.527344 C 70.828125 114.609375 71.664062 114.652344 72.503906 114.652344 C 72.808594 114.652344 73.101562 114.710938 73.382812 114.828125 C 73.664062 114.945312 73.914062 115.109375 74.128906 115.328125 C 74.34375 115.542969 74.511719 115.789062 74.628906 116.070312 C 74.746094 116.351562 74.800781 116.644531 74.800781 116.949219 C 74.800781 117.253906 74.746094 117.546875 74.628906 117.828125 C 74.511719 118.109375 74.34375 118.359375 74.128906 118.574219 C 73.914062 118.789062 73.664062 118.957031 73.382812 119.074219 C 73.101562 119.191406 72.808594 119.246094 72.503906 119.246094 C 71.515625 119.246094 70.527344 119.195312 69.542969 119.097656 C 68.554688 118.996094 67.578125 118.851562 66.605469 118.65625 C 65.632812 118.460938 64.675781 118.21875 63.726562 117.929688 C 62.78125 117.644531 61.847656 117.308594 60.933594 116.929688 C 60.019531 116.546875 59.125 116.125 58.253906 115.65625 C 57.378906 115.191406 56.53125 114.679688 55.707031 114.128906 C 54.882812 113.578125 54.089844 112.988281 53.324219 112.359375 C 52.558594 111.730469 51.824219 111.066406 51.125 110.367188 C 50.425781 109.667969 49.757812 108.933594 49.132812 108.167969 C 48.503906 107.402344 47.914062 106.609375 47.363281 105.785156 C 46.8125 104.960938 46.300781 104.113281 45.835938 103.238281 C 45.367188 102.367188 44.941406 101.472656 44.5625 100.558594 C 44.183594 99.644531 43.847656 98.710938 43.558594 97.765625 C 43.269531 96.816406 43.03125 95.855469 42.835938 94.886719 C 42.640625 93.914062 42.492188 92.9375 42.394531 91.949219 C 42.296875 90.964844 42.246094 89.976562 42.242188 88.984375 L 42.242188 69.011719 C 42.230469 64.460938 43.203125 60.132812 45.160156 56.027344 C 45.277344 55.730469 45.449219 55.46875 45.675781 55.246094 C 45.898438 55.019531 46.160156 54.847656 46.457031 54.730469 C 46.753906 54.613281 47.0625 54.5625 47.378906 54.570312 C 47.699219 54.582031 48 54.65625 48.289062 54.792969 C 48.578125 54.933594 48.824219 55.121094 49.035156 55.363281 C 49.242188 55.601562 49.394531 55.875 49.492188 56.179688 C 49.585938 56.484375 49.617188 56.792969 49.582031 57.113281 C 49.550781 57.429688 49.453125 57.726562 49.296875 58.003906 C 47.644531 61.488281 46.824219 65.15625 46.839844 69.011719 Z M 102.765625 80.5625 C 102.765625 80.257812 102.707031 79.964844 102.59375 79.679688 C 102.476562 79.398438 102.308594 79.152344 102.09375 78.9375 C 101.878906 78.722656 101.628906 78.554688 101.347656 78.4375 C 101.066406 78.320312 100.773438 78.261719 100.46875 78.261719 C 100.164062 78.261719 99.871094 78.320312 99.589844 78.4375 C 99.308594 78.554688 99.0625 78.722656 98.847656 78.9375 C 98.628906 79.152344 98.464844 79.398438 98.347656 79.679688 C 98.230469 79.964844 98.171875 80.257812 98.171875 80.5625 L 98.171875 88.984375 C 98.167969 90.191406 98.082031 91.394531 97.910156 92.589844 C 97.738281 93.785156 97.484375 94.960938 97.148438 96.121094 C 96.8125 97.277344 96.394531 98.40625 95.898438 99.507812 C 95.402344 100.609375 94.832031 101.671875 94.191406 102.691406 C 93.546875 103.710938 92.832031 104.683594 92.050781 105.601562 C 91.273438 106.523438 90.429688 107.386719 89.53125 108.1875 C 88.628906 108.992188 87.675781 109.726562 86.671875 110.394531 C 85.667969 111.0625 84.621094 111.660156 83.53125 112.183594 C 83.234375 112.296875 82.96875 112.46875 82.742188 112.691406 C 82.515625 112.917969 82.339844 113.179688 82.222656 113.476562 C 82.105469 113.773438 82.050781 114.082031 82.0625 114.402344 C 82.070312 114.722656 82.144531 115.023438 82.285156 115.3125 C 82.421875 115.601562 82.609375 115.851562 82.851562 116.0625 C 83.09375 116.269531 83.367188 116.421875 83.671875 116.519531 C 83.980469 116.613281 84.292969 116.644531 84.609375 116.609375 C 84.925781 116.574219 85.226562 116.476562 85.503906 116.316406 C 86.785156 115.703125 88.023438 115 89.207031 114.214844 C 90.394531 113.425781 91.519531 112.558594 92.582031 111.613281 C 93.644531 110.667969 94.640625 109.652344 95.558594 108.566406 C 96.480469 107.480469 97.324219 106.335938 98.082031 105.132812 C 98.84375 103.929688 99.515625 102.679688 100.101562 101.382812 C 100.6875 100.085938 101.179688 98.753906 101.578125 97.386719 C 101.976562 96.019531 102.277344 94.628906 102.480469 93.222656 C 102.683594 91.8125 102.785156 90.394531 102.789062 88.972656 Z M 72.503906 38.75 C 69.144531 38.738281 65.875 39.273438 62.699219 40.363281 C 59.519531 41.453125 56.605469 43.03125 53.957031 45.097656 C 53.722656 45.285156 53.53125 45.511719 53.382812 45.777344 C 53.234375 46.039062 53.144531 46.320312 53.105469 46.621094 C 53.070312 46.921875 53.09375 47.21875 53.175781 47.507812 C 53.253906 47.800781 53.386719 48.066406 53.574219 48.304688 C 53.757812 48.542969 53.980469 48.738281 54.246094 48.890625 C 54.507812 49.039062 54.789062 49.132812 55.085938 49.175781 C 55.386719 49.214844 55.683594 49.195312 55.976562 49.117188 C 56.265625 49.039062 56.535156 48.910156 56.773438 48.726562 C 59.019531 46.972656 61.492188 45.632812 64.1875 44.710938 C 66.882812 43.789062 69.65625 43.332031 72.503906 43.34375 C 73.347656 43.34375 74.183594 43.386719 75.019531 43.46875 C 75.855469 43.554688 76.6875 43.675781 77.511719 43.84375 C 78.335938 44.007812 79.148438 44.210938 79.953125 44.457031 C 80.757812 44.699219 81.546875 44.984375 82.324219 45.304688 C 83.097656 45.628906 83.859375 45.988281 84.597656 46.382812 C 85.339844 46.78125 86.058594 47.210938 86.757812 47.679688 C 87.457031 48.144531 88.128906 48.644531 88.78125 49.179688 C 89.429688 49.710938 90.050781 50.277344 90.644531 50.871094 C 91.238281 51.464844 91.804688 52.085938 92.335938 52.734375 C 92.871094 53.386719 93.371094 54.058594 93.835938 54.757812 C 94.304688 55.457031 94.734375 56.175781 95.132812 56.917969 C 95.527344 57.660156 95.886719 58.417969 96.210938 59.191406 C 96.53125 59.96875 96.816406 60.757812 97.058594 61.5625 C 97.304688 62.367188 97.507812 63.179688 97.675781 64.003906 C 97.839844 64.828125 97.964844 65.660156 98.046875 66.496094 C 98.128906 67.332031 98.171875 68.171875 98.171875 69.011719 C 98.171875 69.316406 98.230469 69.609375 98.347656 69.890625 C 98.464844 70.171875 98.628906 70.417969 98.847656 70.636719 C 99.0625 70.851562 99.308594 71.015625 99.589844 71.132812 C 99.871094 71.25 100.164062 71.308594 100.46875 71.308594 C 100.773438 71.308594 101.066406 71.25 101.347656 71.132812 C 101.628906 71.015625 101.878906 70.851562 102.09375 70.636719 C 102.308594 70.417969 102.476562 70.171875 102.59375 69.890625 C 102.707031 69.609375 102.765625 69.316406 102.765625 69.011719 C 102.765625 68.019531 102.714844 67.03125 102.617188 66.046875 C 102.515625 65.0625 102.371094 64.082031 102.175781 63.109375 C 101.980469 62.140625 101.738281 61.179688 101.449219 60.234375 C 101.160156 59.285156 100.828125 58.355469 100.449219 57.441406 C 100.066406 56.523438 99.644531 55.628906 99.175781 54.757812 C 98.707031 53.882812 98.199219 53.035156 97.648438 52.210938 C 97.097656 51.390625 96.507812 50.59375 95.878906 49.828125 C 95.25 49.0625 94.585938 48.332031 93.886719 47.628906 C 93.1875 46.929688 92.453125 46.265625 91.6875 45.636719 C 90.921875 45.007812 90.128906 44.417969 89.304688 43.867188 C 88.480469 43.316406 87.632812 42.808594 86.757812 42.339844 C 85.886719 41.871094 84.992188 41.449219 84.078125 41.070312 C 83.160156 40.6875 82.230469 40.355469 81.285156 40.066406 C 80.335938 39.777344 79.375 39.535156 78.40625 39.339844 C 77.433594 39.144531 76.457031 39 75.46875 38.898438 C 74.484375 38.800781 73.496094 38.75 72.503906 38.75 Z M 54.652344 98.253906 C 54.402344 98.421875 54.191406 98.636719 54.023438 98.890625 C 53.855469 99.144531 53.742188 99.421875 53.683594 99.71875 C 53.628906 100.019531 53.628906 100.316406 53.691406 100.613281 C 53.75 100.914062 53.867188 101.1875 54.035156 101.441406 C 54.699219 102.421875 55.4375 103.347656 56.246094 104.210938 C 57.058594 105.074219 57.929688 105.871094 58.867188 106.59375 C 59.804688 107.320312 60.792969 107.964844 61.832031 108.535156 C 62.871094 109.101562 63.953125 109.582031 65.066406 109.976562 C 66.183594 110.371094 67.328125 110.675781 68.492188 110.890625 C 69.65625 111.101562 70.832031 111.222656 72.015625 111.25 C 73.199219 111.273438 74.378906 111.207031 75.554688 111.042969 C 76.726562 110.882812 77.878906 110.628906 79.011719 110.28125 C 80.148438 109.933594 81.246094 109.5 82.308594 108.980469 C 83.371094 108.457031 84.386719 107.855469 85.355469 107.171875 C 86.324219 106.488281 87.230469 105.730469 88.078125 104.902344 C 88.925781 104.074219 89.699219 103.183594 90.40625 102.230469 C 91.109375 101.28125 91.734375 100.277344 92.28125 99.226562 C 92.824219 98.171875 93.285156 97.085938 93.65625 95.960938 C 94.027344 94.835938 94.304688 93.6875 94.496094 92.519531 C 94.683594 91.347656 94.777344 90.171875 94.777344 88.984375 L 94.777344 69.011719 C 94.777344 67.1875 94.558594 65.390625 94.117188 63.621094 C 93.675781 61.851562 93.027344 60.160156 92.171875 58.550781 C 91.316406 56.941406 90.277344 55.457031 89.054688 54.101562 C 87.835938 52.746094 86.46875 51.5625 84.957031 50.542969 C 84.703125 50.378906 84.429688 50.269531 84.132812 50.210938 C 83.835938 50.15625 83.542969 50.15625 83.246094 50.21875 C 82.949219 50.277344 82.675781 50.390625 82.425781 50.558594 C 82.175781 50.726562 81.96875 50.933594 81.796875 51.183594 C 81.628906 51.433594 81.515625 51.707031 81.453125 52 C 81.394531 52.296875 81.390625 52.589844 81.445312 52.886719 C 81.5 53.183594 81.609375 53.457031 81.773438 53.710938 C 81.933594 53.964844 82.140625 54.179688 82.386719 54.351562 C 83.589844 55.160156 84.675781 56.101562 85.644531 57.175781 C 86.613281 58.25 87.441406 59.429688 88.121094 60.707031 C 88.800781 61.984375 89.320312 63.324219 89.667969 64.730469 C 90.019531 66.136719 90.195312 67.5625 90.199219 69.011719 L 90.199219 88.984375 C 90.199219 89.925781 90.125 90.863281 89.972656 91.789062 C 89.824219 92.71875 89.601562 93.628906 89.308594 94.523438 C 89.015625 95.417969 88.652344 96.28125 88.21875 97.117188 C 87.785156 97.953125 87.289062 98.746094 86.730469 99.503906 C 86.171875 100.261719 85.554688 100.96875 84.882812 101.625 C 84.210938 102.28125 83.488281 102.882812 82.722656 103.425781 C 81.953125 103.96875 81.148438 104.449219 80.300781 104.863281 C 79.457031 105.277344 78.585938 105.621094 77.6875 105.894531 C 76.785156 106.171875 75.871094 106.371094 74.9375 106.5 C 74.007812 106.628906 73.070312 106.683594 72.128906 106.664062 C 71.191406 106.640625 70.257812 106.546875 69.332031 106.378906 C 68.40625 106.207031 67.5 105.964844 66.613281 105.652344 C 65.726562 105.335938 64.871094 104.953125 64.046875 104.503906 C 63.21875 104.050781 62.433594 103.539062 61.691406 102.964844 C 60.949219 102.386719 60.253906 101.753906 59.613281 101.070312 C 58.96875 100.382812 58.386719 99.648438 57.859375 98.867188 C 57.6875 98.613281 57.476562 98.402344 57.21875 98.230469 C 56.964844 98.0625 56.683594 97.949219 56.382812 97.890625 C 56.082031 97.832031 55.78125 97.835938 55.480469 97.898438 C 55.183594 97.960938 54.90625 98.078125 54.652344 98.253906 Z M 72.503906 46.738281 C 71.777344 46.738281 71.050781 46.777344 70.324219 46.847656 C 69.597656 46.921875 68.878906 47.027344 68.164062 47.171875 C 67.445312 47.3125 66.742188 47.492188 66.042969 47.703125 C 65.34375 47.914062 64.660156 48.160156 63.988281 48.441406 C 63.3125 48.71875 62.65625 49.03125 62.011719 49.375 C 61.367188 49.71875 60.746094 50.09375 60.136719 50.5 C 59.53125 50.90625 58.945312 51.339844 58.382812 51.800781 C 57.820312 52.265625 57.28125 52.753906 56.765625 53.269531 C 56.25 53.785156 55.757812 54.324219 55.296875 54.890625 C 54.835938 55.453125 54.398438 56.039062 53.996094 56.644531 C 53.589844 57.25 53.214844 57.875 52.871094 58.515625 C 52.527344 59.160156 52.214844 59.816406 51.9375 60.492188 C 51.65625 61.164062 51.410156 61.851562 51.199219 62.546875 C 50.984375 63.246094 50.808594 63.953125 50.664062 64.667969 C 50.523438 65.382812 50.414062 66.101562 50.34375 66.828125 C 50.269531 67.554688 50.234375 68.28125 50.234375 69.011719 L 50.234375 88.984375 C 50.234375 89.289062 50.292969 89.582031 50.40625 89.867188 C 50.523438 90.148438 50.691406 90.394531 50.90625 90.609375 C 51.121094 90.824219 51.371094 90.992188 51.652344 91.109375 C 51.933594 91.226562 52.226562 91.285156 52.53125 91.285156 C 52.835938 91.285156 53.128906 91.226562 53.410156 91.109375 C 53.691406 90.992188 53.9375 90.824219 54.15625 90.609375 C 54.371094 90.394531 54.535156 90.148438 54.652344 89.867188 C 54.769531 89.582031 54.828125 89.289062 54.828125 88.984375 L 54.828125 69.011719 C 54.828125 68.433594 54.855469 67.855469 54.914062 67.277344 C 54.972656 66.703125 55.054688 66.132812 55.167969 65.5625 C 55.285156 64.996094 55.425781 64.433594 55.59375 63.882812 C 55.761719 63.328125 55.957031 62.78125 56.179688 62.25 C 56.398438 61.714844 56.648438 61.191406 56.921875 60.679688 C 57.191406 60.171875 57.492188 59.675781 57.8125 59.195312 C 58.132812 58.710938 58.476562 58.25 58.84375 57.800781 C 59.210938 57.351562 59.601562 56.925781 60.011719 56.515625 C 60.417969 56.105469 60.847656 55.71875 61.296875 55.351562 C 61.742188 54.984375 62.207031 54.640625 62.6875 54.316406 C 63.167969 53.996094 63.664062 53.699219 64.175781 53.425781 C 64.6875 53.152344 65.207031 52.90625 65.742188 52.683594 C 66.277344 52.460938 66.820312 52.265625 67.375 52.097656 C 67.929688 51.929688 68.492188 51.789062 69.058594 51.675781 C 69.625 51.5625 70.195312 51.476562 70.773438 51.417969 C 71.347656 51.363281 71.925781 51.332031 72.503906 51.332031 C 72.808594 51.332031 73.101562 51.273438 73.382812 51.15625 C 73.664062 51.042969 73.914062 50.875 74.128906 50.660156 C 74.34375 50.445312 74.511719 50.195312 74.628906 49.914062 C 74.746094 49.632812 74.800781 49.339844 74.800781 49.035156 C 74.800781 48.730469 74.746094 48.4375 74.628906 48.15625 C 74.511719 47.875 74.34375 47.625 74.128906 47.410156 C 73.914062 47.195312 73.664062 47.03125 73.382812 46.914062 C 73.101562 46.796875 72.808594 46.738281 72.503906 46.738281 Z M 67.695312 55.566406 C 67.410156 55.671875 67.152344 55.824219 66.925781 56.027344 C 66.699219 56.234375 66.519531 56.472656 66.390625 56.746094 C 66.261719 57.023438 66.1875 57.3125 66.171875 57.617188 C 66.15625 57.921875 66.199219 58.21875 66.300781 58.503906 C 66.40625 58.792969 66.558594 59.046875 66.761719 59.273438 C 66.96875 59.5 67.207031 59.679688 67.480469 59.808594 C 67.757812 59.9375 68.046875 60.011719 68.351562 60.027344 C 68.65625 60.042969 68.953125 60 69.238281 59.894531 C 69.601562 59.765625 69.972656 59.65625 70.351562 59.570312 C 70.726562 59.484375 71.109375 59.421875 71.496094 59.382812 C 71.878906 59.34375 72.265625 59.324219 72.652344 59.332031 C 73.039062 59.335938 73.421875 59.367188 73.808594 59.417969 C 74.191406 59.472656 74.570312 59.546875 74.941406 59.644531 C 75.316406 59.742188 75.683594 59.859375 76.042969 60 C 76.40625 60.144531 76.753906 60.304688 77.097656 60.488281 C 77.4375 60.671875 77.765625 60.875 78.082031 61.097656 C 78.398438 61.320312 78.699219 61.5625 78.988281 61.820312 C 79.273438 62.082031 79.542969 62.355469 79.800781 62.648438 C 80.054688 62.9375 80.289062 63.242188 80.507812 63.5625 C 80.726562 63.882812 80.921875 64.214844 81.101562 64.558594 C 81.28125 64.902344 81.4375 65.253906 81.574219 65.617188 C 81.707031 65.980469 81.824219 66.347656 81.914062 66.722656 C 82.003906 67.097656 82.074219 67.480469 82.121094 67.863281 C 82.167969 68.246094 82.191406 68.632812 82.191406 69.019531 C 82.191406 69.324219 82.25 69.617188 82.363281 69.898438 C 82.480469 70.179688 82.648438 70.429688 82.863281 70.644531 C 83.078125 70.859375 83.328125 71.027344 83.609375 71.140625 C 83.890625 71.257812 84.183594 71.316406 84.488281 71.316406 C 84.792969 71.316406 85.085938 71.257812 85.367188 71.140625 C 85.648438 71.027344 85.894531 70.859375 86.109375 70.644531 C 86.328125 70.429688 86.492188 70.179688 86.609375 69.898438 C 86.726562 69.617188 86.785156 69.324219 86.785156 69.019531 C 86.785156 68.449219 86.75 67.882812 86.679688 67.316406 C 86.613281 66.75 86.511719 66.191406 86.375 65.636719 C 86.242188 65.082031 86.074219 64.539062 85.871094 64.003906 C 85.671875 63.46875 85.441406 62.949219 85.179688 62.445312 C 84.914062 61.9375 84.625 61.449219 84.304688 60.980469 C 83.980469 60.507812 83.632812 60.058594 83.257812 59.628906 C 82.882812 59.199219 82.484375 58.792969 82.0625 58.410156 C 81.636719 58.03125 81.191406 57.675781 80.726562 57.347656 C 80.261719 57.019531 79.777344 56.71875 79.273438 56.449219 C 78.773438 56.175781 78.257812 55.9375 77.726562 55.730469 C 77.195312 55.519531 76.652344 55.34375 76.101562 55.199219 C 75.550781 55.054688 74.992188 54.945312 74.425781 54.867188 C 73.863281 54.792969 73.296875 54.75 72.726562 54.738281 C 72.15625 54.730469 71.585938 54.753906 71.019531 54.8125 C 70.453125 54.875 69.890625 54.964844 69.335938 55.089844 C 68.777344 55.21875 68.230469 55.375 67.695312 55.566406 Z M 63.503906 60.777344 C 63.246094 60.617188 62.964844 60.515625 62.664062 60.464844 C 62.363281 60.417969 62.066406 60.429688 61.769531 60.496094 C 61.472656 60.566406 61.203125 60.691406 60.953125 60.871094 C 60.707031 61.050781 60.503906 61.269531 60.34375 61.527344 C 58.929688 63.824219 58.222656 66.320312 58.226562 69.019531 L 58.226562 88.996094 C 58.226562 89.300781 58.285156 89.59375 58.402344 89.875 C 58.519531 90.15625 58.683594 90.402344 58.898438 90.621094 C 59.113281 90.835938 59.363281 91 59.644531 91.117188 C 59.925781 91.234375 60.21875 91.292969 60.523438 91.292969 C 60.828125 91.292969 61.121094 91.234375 61.402344 91.117188 C 61.683594 91 61.933594 90.835938 62.148438 90.621094 C 62.363281 90.402344 62.53125 90.15625 62.644531 89.875 C 62.761719 89.59375 62.820312 89.300781 62.820312 88.996094 L 62.820312 69.011719 C 62.8125 67.183594 63.285156 65.488281 64.234375 63.929688 C 64.398438 63.671875 64.503906 63.390625 64.550781 63.09375 C 64.601562 62.792969 64.59375 62.496094 64.523438 62.199219 C 64.457031 61.902344 64.332031 61.628906 64.15625 61.382812 C 63.980469 61.136719 63.761719 60.929688 63.503906 60.769531 Z M 64.808594 98.449219 C 64.664062 98.71875 64.574219 99.003906 64.542969 99.304688 C 64.511719 99.609375 64.539062 99.90625 64.625 100.199219 C 64.710938 100.488281 64.851562 100.753906 65.042969 100.992188 C 65.230469 101.226562 65.460938 101.417969 65.730469 101.566406 C 66.269531 101.855469 66.828125 102.109375 67.402344 102.328125 C 67.976562 102.546875 68.566406 102.730469 69.164062 102.871094 C 69.761719 103.015625 70.367188 103.121094 70.976562 103.183594 C 71.589844 103.25 72.203125 103.273438 72.816406 103.261719 C 73.429688 103.246094 74.042969 103.191406 74.648438 103.101562 C 75.257812 103.007812 75.859375 102.875 76.449219 102.703125 C 77.039062 102.535156 77.617188 102.328125 78.179688 102.082031 C 78.746094 101.835938 79.289062 101.554688 79.816406 101.238281 C 80.347656 100.925781 80.851562 100.578125 81.332031 100.195312 C 81.816406 99.816406 82.273438 99.402344 82.703125 98.964844 C 83.132812 98.523438 83.53125 98.058594 83.902344 97.566406 C 84.269531 97.074219 84.609375 96.5625 84.910156 96.027344 C 85.214844 95.492188 85.480469 94.941406 85.714844 94.371094 C 85.945312 93.800781 86.140625 93.21875 86.296875 92.625 C 86.453125 92.03125 86.574219 91.429688 86.652344 90.820312 C 86.730469 90.207031 86.769531 89.597656 86.769531 88.980469 L 86.769531 79 C 86.769531 78.695312 86.710938 78.402344 86.59375 78.121094 C 86.480469 77.839844 86.3125 77.589844 86.097656 77.375 C 85.882812 77.160156 85.632812 76.992188 85.351562 76.875 C 85.070312 76.757812 84.777344 76.703125 84.472656 76.703125 C 84.167969 76.703125 83.875 76.757812 83.59375 76.875 C 83.3125 76.992188 83.0625 77.160156 82.847656 77.375 C 82.632812 77.589844 82.46875 77.839844 82.351562 78.121094 C 82.234375 78.402344 82.175781 78.695312 82.175781 79 L 82.175781 88.984375 C 82.175781 89.402344 82.148438 89.820312 82.097656 90.230469 C 82.042969 90.644531 81.960938 91.054688 81.855469 91.457031 C 81.75 91.859375 81.617188 92.253906 81.460938 92.640625 C 81.304688 93.027344 81.121094 93.402344 80.917969 93.765625 C 80.710938 94.128906 80.484375 94.476562 80.234375 94.808594 C 79.980469 95.140625 79.710938 95.457031 79.421875 95.757812 C 79.128906 96.054688 78.820312 96.332031 78.492188 96.589844 C 78.164062 96.847656 77.820312 97.085938 77.464844 97.300781 C 77.105469 97.515625 76.738281 97.703125 76.355469 97.871094 C 75.972656 98.035156 75.582031 98.175781 75.179688 98.292969 C 74.777344 98.410156 74.371094 98.5 73.960938 98.5625 C 73.546875 98.625 73.132812 98.660156 72.71875 98.671875 C 72.300781 98.679688 71.882812 98.664062 71.46875 98.621094 C 71.054688 98.574219 70.644531 98.503906 70.238281 98.410156 C 69.835938 98.3125 69.4375 98.1875 69.046875 98.039062 C 68.65625 97.890625 68.277344 97.71875 67.910156 97.523438 C 67.644531 97.378906 67.359375 97.292969 67.058594 97.261719 C 66.753906 97.234375 66.460938 97.261719 66.167969 97.347656 C 65.878906 97.4375 65.613281 97.574219 65.378906 97.765625 C 65.144531 97.957031 64.953125 98.1875 64.808594 98.453125 Z M 70.207031 90.984375 C 70.207031 91.289062 70.265625 91.582031 70.382812 91.863281 C 70.5 92.144531 70.664062 92.394531 70.882812 92.609375 C 71.097656 92.824219 71.34375 92.992188 71.625 93.105469 C 71.90625 93.222656 72.199219 93.28125 72.503906 93.28125 C 72.808594 93.28125 73.101562 93.222656 73.382812 93.105469 C 73.664062 92.992188 73.914062 92.824219 74.128906 92.609375 C 74.34375 92.394531 74.511719 92.144531 74.628906 91.863281 C 74.746094 91.582031 74.800781 91.289062 74.800781 90.984375 L 74.800781 82.417969 C 74.800781 82.113281 74.746094 81.820312 74.628906 81.539062 C 74.511719 81.257812 74.34375 81.007812 74.128906 80.792969 C 73.914062 80.578125 73.664062 80.410156 73.382812 80.292969 C 73.101562 80.179688 72.808594 80.121094 72.503906 80.121094 C 72.199219 80.121094 71.90625 80.179688 71.625 80.292969 C 71.34375 80.410156 71.097656 80.578125 70.882812 80.792969 C 70.664062 81.007812 70.5 81.257812 70.382812 81.539062 C 70.265625 81.820312 70.207031 82.113281 70.207031 82.417969 Z M 72.503906 76.742188 C 72.808594 76.742188 73.101562 76.683594 73.382812 76.566406 C 73.664062 76.453125 73.914062 76.285156 74.128906 76.070312 C 74.34375 75.855469 74.511719 75.605469 74.628906 75.324219 C 74.746094 75.042969 74.800781 74.75 74.800781 74.445312 L 74.800781 67.011719 C 74.800781 66.707031 74.746094 66.414062 74.628906 66.132812 C 74.511719 65.851562 74.34375 65.601562 74.128906 65.386719 C 73.914062 65.171875 73.664062 65.007812 73.382812 64.890625 C 73.101562 64.773438 72.808594 64.714844 72.503906 64.714844 C 72.199219 64.714844 71.90625 64.773438 71.625 64.890625 C 71.34375 65.007812 71.097656 65.171875 70.882812 65.386719 C 70.664062 65.601562 70.5 65.851562 70.382812 66.132812 C 70.265625 66.414062 70.207031 66.707031 70.207031 67.011719 L 70.207031 74.425781 C 70.207031 74.730469 70.265625 75.023438 70.382812 75.304688 C 70.5 75.585938 70.664062 75.835938 70.882812 76.050781 C 71.097656 76.265625 71.34375 76.433594 71.625 76.550781 C 71.90625 76.667969 72.199219 76.722656 72.503906 76.722656 Z M 19.671875 46.839844 C 19.976562 46.839844 20.269531 46.78125 20.550781 46.664062 C 20.832031 46.546875 21.082031 46.382812 21.296875 46.167969 C 21.511719 45.953125 21.679688 45.703125 21.792969 45.421875 C 21.910156 45.140625 21.96875 44.847656 21.96875 44.542969 L 21.96875 28.460938 L 38.050781 28.460938 C 38.355469 28.460938 38.648438 28.40625 38.929688 28.289062 C 39.210938 28.171875 39.457031 28.003906 39.671875 27.789062 C 39.890625 27.574219 40.054688 27.328125 40.171875 27.042969 C 40.289062 26.761719 40.347656 26.46875 40.347656 26.164062 C 40.347656 25.859375 40.289062 25.566406 40.171875 25.285156 C 40.054688 25.003906 39.890625 24.757812 39.671875 24.542969 C 39.457031 24.324219 39.210938 24.160156 38.929688 24.042969 C 38.648438 23.925781 38.355469 23.867188 38.050781 23.867188 L 19.671875 23.867188 C 19.367188 23.867188 19.074219 23.925781 18.792969 24.042969 C 18.511719 24.160156 18.265625 24.324219 18.046875 24.542969 C 17.832031 24.757812 17.667969 25.003906 17.550781 25.285156 C 17.433594 25.566406 17.375 25.859375 17.375 26.164062 L 17.375 44.542969 C 17.375 44.847656 17.433594 45.140625 17.550781 45.421875 C 17.667969 45.703125 17.832031 45.953125 18.046875 46.167969 C 18.265625 46.382812 18.511719 46.546875 18.792969 46.664062 C 19.074219 46.78125 19.367188 46.839844 19.671875 46.839844 Z M 125.339844 23.867188 L 106.960938 23.867188 C 106.65625 23.867188 106.363281 23.925781 106.082031 24.042969 C 105.800781 24.160156 105.550781 24.324219 105.335938 24.542969 C 105.121094 24.757812 104.957031 25.003906 104.839844 25.285156 C 104.722656 25.566406 104.664062 25.859375 104.664062 26.164062 C 104.664062 26.46875 104.722656 26.761719 104.839844 27.042969 C 104.957031 27.328125 105.121094 27.574219 105.335938 27.789062 C 105.550781 28.003906 105.800781 28.171875 106.082031 28.289062 C 106.363281 28.40625 106.65625 28.460938 106.960938 28.460938 L 123.042969 28.460938 L 123.042969 44.542969 C 123.042969 44.847656 123.097656 45.140625 123.214844 45.421875 C 123.332031 45.703125 123.5 45.953125 123.714844 46.167969 C 123.929688 46.382812 124.175781 46.546875 124.460938 46.664062 C 124.742188 46.78125 125.035156 46.839844 125.339844 46.839844 C 125.644531 46.839844 125.9375 46.78125 126.21875 46.664062 C 126.5 46.546875 126.746094 46.382812 126.960938 46.167969 C 127.179688 45.953125 127.34375 45.703125 127.460938 45.421875 C 127.578125 45.140625 127.636719 44.847656 127.636719 44.542969 L 127.636719 26.164062 C 127.636719 25.859375 127.578125 25.566406 127.460938 25.285156 C 127.34375 25.003906 127.179688 24.757812 126.960938 24.542969 C 126.746094 24.324219 126.5 24.160156 126.21875 24.042969 C 125.9375 23.925781 125.644531 23.867188 125.339844 23.867188 Z M 19.671875 134.128906 L 38.050781 134.128906 C 38.355469 134.128906 38.648438 134.070312 38.929688 133.953125 C 39.210938 133.835938 39.457031 133.671875 39.671875 133.457031 C 39.890625 133.238281 40.054688 132.992188 40.171875 132.710938 C 40.289062 132.429688 40.347656 132.136719 40.347656 131.832031 C 40.347656 131.527344 40.289062 131.234375 40.171875 130.953125 C 40.054688 130.671875 39.890625 130.421875 39.671875 130.207031 C 39.457031 129.992188 39.210938 129.824219 38.929688 129.710938 C 38.648438 129.59375 38.355469 129.535156 38.050781 129.535156 L 21.96875 129.535156 L 21.96875 113.453125 C 21.96875 113.148438 21.910156 112.855469 21.792969 112.574219 C 21.679688 112.292969 21.511719 112.046875 21.296875 111.832031 C 21.082031 111.613281 20.832031 111.449219 20.550781 111.332031 C 20.269531 111.214844 19.976562 111.15625 19.671875 111.15625 C 19.367188 111.15625 19.074219 111.214844 18.792969 111.332031 C 18.511719 111.449219 18.265625 111.613281 18.046875 111.832031 C 17.832031 112.046875 17.667969 112.292969 17.550781 112.574219 C 17.433594 112.855469 17.375 113.148438 17.375 113.453125 L 17.375 131.832031 C 17.375 132.136719 17.433594 132.429688 17.550781 132.710938 C 17.667969 132.992188 17.832031 133.238281 18.046875 133.457031 C 18.265625 133.671875 18.511719 133.835938 18.792969 133.953125 C 19.074219 134.070312 19.367188 134.128906 19.671875 134.128906 Z M 125.339844 111.15625 C 125.035156 111.15625 124.742188 111.214844 124.460938 111.332031 C 124.175781 111.449219 123.929688 111.613281 123.714844 111.832031 C 123.5 112.046875 123.332031 112.292969 123.214844 112.574219 C 123.097656 112.855469 123.042969 113.148438 123.042969 113.453125 L 123.042969 129.535156 L 106.960938 129.535156 C 106.65625 129.535156 106.363281 129.59375 106.082031 129.710938 C 105.800781 129.824219 105.550781 129.992188 105.335938 130.207031 C 105.121094 130.421875 104.957031 130.671875 104.839844 130.953125 C 104.722656 131.234375 104.664062 131.527344 104.664062 131.832031 C 104.664062 132.136719 104.722656 132.429688 104.839844 132.710938 C 104.957031 132.992188 105.121094 133.238281 105.335938 133.457031 C 105.550781 133.671875 105.800781 133.835938 106.082031 133.953125 C 106.363281 134.070312 106.65625 134.128906 106.960938 134.128906 L 125.339844 134.128906 C 125.644531 134.128906 125.9375 134.070312 126.21875 133.953125 C 126.5 133.835938 126.746094 133.671875 126.960938 133.457031 C 127.179688 133.238281 127.34375 132.992188 127.460938 132.710938 C 127.578125 132.429688 127.636719 132.136719 127.636719 131.832031 L 127.636719 113.453125 C 127.636719 113.148438 127.578125 112.855469 127.460938 112.574219 C 127.34375 112.292969 127.179688 112.046875 126.960938 111.832031 C 126.746094 111.613281 126.5 111.449219 126.21875 111.332031 C 125.9375 111.214844 125.644531 111.15625 125.339844 111.15625 Z M 125.339844 111.15625 " fill-opacity="1" fill-rule="nonzero"/></g><path fill="#ffffff" d="M 145.898438 110.679688 L 526.113281 110.679688 L 526.113281 117.386719 L 145.898438 117.386719 Z M 145.898438 110.679688 " fill-opacity="1" fill-rule="nonzero"/><g fill="#ffffff" fill-opacity="1"><g transform="translate(145.9001, 106.952348)"><g><path d="M 37.34375 0 L 6.703125 0 L 6.703125 -53.203125 L 37.34375 -53.203125 L 37.34375 -43.96875 L 17.984375 -43.96875 L 17.984375 -32.28125 L 35.984375 -32.28125 L 35.984375 -23.03125 L 17.984375 -23.03125 L 17.984375 -9.3125 L 37.34375 -9.3125 Z M 37.34375 0 "/></g></g></g><g fill="#ffffff" fill-opacity="1"><g transform="translate(187.635449, 106.952348)"><g><path d="M 2.21875 -15.4375 L 2.21875 -24.53125 L 21.765625 -24.53125 L 21.765625 -15.4375 Z M 2.21875 -15.4375 "/></g></g></g><g fill="#ffffff" fill-opacity="1"><g transform="translate(211.614175, 106.952348)"><g><path d="M 17.984375 -28.171875 L 21.6875 -28.171875 C 25.15625 -28.171875 27.75 -28.851562 29.46875 -30.21875 C 31.195312 -31.59375 32.0625 -33.585938 32.0625 -36.203125 C 32.0625 -38.847656 31.335938 -40.800781 29.890625 -42.0625 C 28.453125 -43.332031 26.191406 -43.96875 23.109375 -43.96875 L 17.984375 -43.96875 Z M 43.453125 -36.609375 C 43.453125 -30.878906 41.660156 -26.5 38.078125 -23.46875 C 34.503906 -20.4375 29.414062 -18.921875 22.8125 -18.921875 L 17.984375 -18.921875 L 17.984375 0 L 6.703125 0 L 6.703125 -53.203125 L 23.6875 -53.203125 C 30.144531 -53.203125 35.050781 -51.8125 38.40625 -49.03125 C 41.769531 -46.257812 43.453125 -42.117188 43.453125 -36.609375 Z M 43.453125 -36.609375 "/></g></g></g><g fill="#ffffff" fill-opacity="1"><g transform="translate(258.407245, 106.952348)"><g><path d="M 28.53125 -41.453125 C 30.03125 -41.453125 31.28125 -41.34375 32.28125 -41.125 L 31.4375 -30.71875 C 30.539062 -30.957031 29.453125 -31.078125 28.171875 -31.078125 C 24.628906 -31.078125 21.867188 -30.164062 19.890625 -28.34375 C 17.910156 -26.53125 16.921875 -23.984375 16.921875 -20.703125 L 16.921875 0 L 5.828125 0 L 5.828125 -40.6875 L 14.234375 -40.6875 L 15.859375 -33.84375 L 16.40625 -33.84375 C 17.675781 -36.125 19.382812 -37.960938 21.53125 -39.359375 C 23.675781 -40.753906 26.007812 -41.453125 28.53125 -41.453125 Z M 28.53125 -41.453125 "/></g></g></g><g fill="#ffffff" fill-opacity="1"><g transform="translate(292.246713, 106.952348)"><g><path d="M 22.671875 -33.546875 C 20.316406 -33.546875 18.472656 -32.800781 17.140625 -31.3125 C 15.804688 -29.820312 15.039062 -27.707031 14.84375 -24.96875 L 30.421875 -24.96875 C 30.367188 -27.707031 29.648438 -29.820312 28.265625 -31.3125 C 26.890625 -32.800781 25.023438 -33.546875 22.671875 -33.546875 Z M 24.234375 0.734375 C 17.679688 0.734375 12.5625 -1.070312 8.875 -4.6875 C 5.1875 -8.300781 3.34375 -13.421875 3.34375 -20.046875 C 3.34375 -26.867188 5.046875 -32.140625 8.453125 -35.859375 C 11.867188 -39.585938 16.582031 -41.453125 22.59375 -41.453125 C 28.34375 -41.453125 32.816406 -39.8125 36.015625 -36.53125 C 39.222656 -33.257812 40.828125 -28.738281 40.828125 -22.96875 L 40.828125 -17.578125 L 14.59375 -17.578125 C 14.71875 -14.421875 15.648438 -11.957031 17.390625 -10.1875 C 19.140625 -8.414062 21.59375 -7.53125 24.75 -7.53125 C 27.195312 -7.53125 29.507812 -7.785156 31.6875 -8.296875 C 33.875 -8.804688 36.160156 -9.617188 38.546875 -10.734375 L 38.546875 -2.140625 C 36.597656 -1.171875 34.519531 -0.453125 32.3125 0.015625 C 30.101562 0.492188 27.410156 0.734375 24.234375 0.734375 Z M 24.234375 0.734375 "/></g></g></g><g fill="#ffffff" fill-opacity="1"><g transform="translate(336.274408, 106.952348)"><g><path d="M 34.203125 -12.078125 C 34.203125 -7.910156 32.753906 -4.734375 29.859375 -2.546875 C 26.960938 -0.359375 22.625 0.734375 16.84375 0.734375 C 13.882812 0.734375 11.363281 0.53125 9.28125 0.125 C 7.195312 -0.269531 5.242188 -0.859375 3.421875 -1.640625 L 3.421875 -10.8125 C 5.484375 -9.84375 7.804688 -9.03125 10.390625 -8.375 C 12.972656 -7.71875 15.25 -7.390625 17.21875 -7.390625 C 21.238281 -7.390625 23.25 -8.550781 23.25 -10.875 C 23.25 -11.75 22.984375 -12.457031 22.453125 -13 C 21.921875 -13.550781 21 -14.171875 19.6875 -14.859375 C 18.375 -15.554688 16.628906 -16.363281 14.453125 -17.28125 C 11.316406 -18.59375 9.015625 -19.804688 7.546875 -20.921875 C 6.078125 -22.035156 5.007812 -23.316406 4.34375 -24.765625 C 3.675781 -26.210938 3.34375 -27.988281 3.34375 -30.09375 C 3.34375 -33.707031 4.742188 -36.503906 7.546875 -38.484375 C 10.347656 -40.460938 14.320312 -41.453125 19.46875 -41.453125 C 24.375 -41.453125 29.140625 -40.382812 33.765625 -38.25 L 30.421875 -30.234375 C 28.378906 -31.109375 26.472656 -31.820312 24.703125 -32.375 C 22.929688 -32.9375 21.125 -33.21875 19.28125 -33.21875 C 16.007812 -33.21875 14.375 -32.332031 14.375 -30.5625 C 14.375 -29.570312 14.898438 -28.710938 15.953125 -27.984375 C 17.015625 -27.253906 19.328125 -26.175781 22.890625 -24.75 C 26.066406 -23.457031 28.394531 -22.253906 29.875 -21.140625 C 31.351562 -20.023438 32.441406 -18.738281 33.140625 -17.28125 C 33.847656 -15.832031 34.203125 -14.097656 34.203125 -12.078125 Z M 34.203125 -12.078125 "/></g></g></g><g fill="#ffffff" fill-opacity="1"><g transform="translate(373.31589, 106.952348)"><g><path d="M 22.671875 -33.546875 C 20.316406 -33.546875 18.472656 -32.800781 17.140625 -31.3125 C 15.804688 -29.820312 15.039062 -27.707031 14.84375 -24.96875 L 30.421875 -24.96875 C 30.367188 -27.707031 29.648438 -29.820312 28.265625 -31.3125 C 26.890625 -32.800781 25.023438 -33.546875 22.671875 -33.546875 Z M 24.234375 0.734375 C 17.679688 0.734375 12.5625 -1.070312 8.875 -4.6875 C 5.1875 -8.300781 3.34375 -13.421875 3.34375 -20.046875 C 3.34375 -26.867188 5.046875 -32.140625 8.453125 -35.859375 C 11.867188 -39.585938 16.582031 -41.453125 22.59375 -41.453125 C 28.34375 -41.453125 32.816406 -39.8125 36.015625 -36.53125 C 39.222656 -33.257812 40.828125 -28.738281 40.828125 -22.96875 L 40.828125 -17.578125 L 14.59375 -17.578125 C 14.71875 -14.421875 15.648438 -11.957031 17.390625 -10.1875 C 19.140625 -8.414062 21.59375 -7.53125 24.75 -7.53125 C 27.195312 -7.53125 29.507812 -7.785156 31.6875 -8.296875 C 33.875 -8.804688 36.160156 -9.617188 38.546875 -10.734375 L 38.546875 -2.140625 C 36.597656 -1.171875 34.519531 -0.453125 32.3125 0.015625 C 30.101562 0.492188 27.410156 0.734375 24.234375 0.734375 Z M 24.234375 0.734375 "/></g></g></g><g fill="#ffffff" fill-opacity="1"><g transform="translate(417.343596, 106.952348)"><g><path d="M 43.375 0 L 32.28125 0 L 32.28125 -23.765625 C 32.28125 -26.703125 31.757812 -28.90625 30.71875 -30.375 C 29.675781 -31.84375 28.015625 -32.578125 25.734375 -32.578125 C 22.628906 -32.578125 20.382812 -31.535156 19 -29.453125 C 17.613281 -27.378906 16.921875 -23.941406 16.921875 -19.140625 L 16.921875 0 L 5.828125 0 L 5.828125 -40.6875 L 14.296875 -40.6875 L 15.796875 -35.484375 L 16.40625 -35.484375 C 17.644531 -37.453125 19.347656 -38.9375 21.515625 -39.9375 C 23.691406 -40.945312 26.164062 -41.453125 28.9375 -41.453125 C 33.664062 -41.453125 37.253906 -40.171875 39.703125 -37.609375 C 42.148438 -35.046875 43.375 -31.351562 43.375 -26.53125 Z M 43.375 0 "/></g></g></g><g fill="#ffffff" fill-opacity="1"><g transform="translate(466.31987, 106.952348)"><g><path d="M 34.203125 -12.078125 C 34.203125 -7.910156 32.753906 -4.734375 29.859375 -2.546875 C 26.960938 -0.359375 22.625 0.734375 16.84375 0.734375 C 13.882812 0.734375 11.363281 0.53125 9.28125 0.125 C 7.195312 -0.269531 5.242188 -0.859375 3.421875 -1.640625 L 3.421875 -10.8125 C 5.484375 -9.84375 7.804688 -9.03125 10.390625 -8.375 C 12.972656 -7.71875 15.25 -7.390625 17.21875 -7.390625 C 21.238281 -7.390625 23.25 -8.550781 23.25 -10.875 C 23.25 -11.75 22.984375 -12.457031 22.453125 -13 C 21.921875 -13.550781 21 -14.171875 19.6875 -14.859375 C 18.375 -15.554688 16.628906 -16.363281 14.453125 -17.28125 C 11.316406 -18.59375 9.015625 -19.804688 7.546875 -20.921875 C 6.078125 -22.035156 5.007812 -23.316406 4.34375 -24.765625 C 3.675781 -26.210938 3.34375 -27.988281 3.34375 -30.09375 C 3.34375 -33.707031 4.742188 -36.503906 7.546875 -38.484375 C 10.347656 -40.460938 14.320312 -41.453125 19.46875 -41.453125 C 24.375 -41.453125 29.140625 -40.382812 33.765625 -38.25 L 30.421875 -30.234375 C 28.378906 -31.109375 26.472656 -31.820312 24.703125 -32.375 C 22.929688 -32.9375 21.125 -33.21875 19.28125 -33.21875 C 16.007812 -33.21875 14.375 -32.332031 14.375 -30.5625 C 14.375 -29.570312 14.898438 -28.710938 15.953125 -27.984375 C 17.015625 -27.253906 19.328125 -26.175781 22.890625 -24.75 C 26.066406 -23.457031 28.394531 -22.253906 29.875 -21.140625 C 31.351562 -20.023438 32.441406 -18.738281 33.140625 -17.28125 C 33.847656 -15.832031 34.203125 -14.097656 34.203125 -12.078125 Z M 34.203125 -12.078125 "/></g></g></g><g fill="#ffffff" fill-opacity="1"><g transform="translate(503.361363, 106.952348)"><g><path d="M 5.34375 -51.203125 C 5.34375 -54.816406 7.359375 -56.625 11.390625 -56.625 C 15.421875 -56.625 17.4375 -54.816406 17.4375 -51.203125 C 17.4375 -49.484375 16.929688 -48.144531 15.921875 -47.1875 C 14.910156 -46.226562 13.398438 -45.75 11.390625 -45.75 C 7.359375 -45.75 5.34375 -47.566406 5.34375 -51.203125 Z M 16.921875 0 L 5.828125 0 L 5.828125 -40.6875 L 16.921875 -40.6875 Z M 16.921875 0 "/></g></g></g></svg>